<?xml version="1.0" encoding="UTF-8"?>
<svg width="16px" height="16px" viewBox="0 0 16 16" version="1.1" xmlns="http://www.w3.org/2000/svg" xmlns:xlink="http://www.w3.org/1999/xlink">
    <!-- Generator: Sketch 63.1 (92452) - https://sketch.com -->
    <title>internet_pc_ic_drawer_list_open</title>
    <desc>Created with Sketch.</desc>
    <g id="internet_pc_ic_drawer_list_open" stroke="none" stroke-width="1" fill="none" fill-rule="evenodd">
        <path d="M11.461299,5.7779023 L8.10849897,9.1579023 C8.07409897,9.1923023 8.03409897,9.1995023 8.00689897,9.1995023 C7.97889897,9.1995023 7.94049897,9.1923023 7.90609897,9.1579023 L4.53889897,5.7771023 C4.30449897,5.5419023 3.92529897,5.5419023 3.69009897,5.7755023 C3.45489897,6.0091023 3.45409897,6.3891023 3.68849897,6.6243023 L7.05489897,10.0043023 C7.30929897,10.2595023 7.64609897,10.3995023 8.00689897,10.3995023 L8.00769897,10.3995023 C8.36769897,10.3987023 8.70609897,10.2587023 8.95969897,10.0019023 L12.312499,6.6235023 C12.546099,6.3883023 12.544499,6.0075023 12.310099,5.7747023 C12.074899,5.5411023 11.694899,5.5427023 11.461299,5.7779023" id="Fill-1" fill="#797979" fill-rule="nonzero"></path>
    </g>
</svg>