<?xml version="1.0" encoding="UTF-8"?>
<svg width="20px" height="20px" viewBox="0 0 20 20" version="1.1" xmlns="http://www.w3.org/2000/svg" xmlns:xlink="http://www.w3.org/1999/xlink">
    <!-- Generator: Sketch 63.1 (92452) - https://sketch.com -->
    <title>PC/Light_theme/ic/bookmark/popup/openfolder</title>
    <desc>Created with Sketch.</desc>
    <g id="PC/Light_theme/ic/bookmark/popup/openfolder" stroke="none" stroke-width="1" fill="none" fill-rule="evenodd">
        <g id="Common/folder" transform="translate(2.000000, 3.000000)" stroke="#797979" stroke-linecap="round" stroke-linejoin="round" stroke-width="1.5">
            <path d="M13.2083333,2.9675 L9.35416667,2.9675 C9.01083333,2.9675 8.52833333,2.77083333 8.2825,2.53083333 L7.12083333,1.395 C6.875,1.155 6.3925,0.958333333 6.04833333,0.958333333 L2.79166667,0.958333333 C1.64166667,0.958333333 0.708333333,1.89083333 0.708333333,3.04166667 L0.708333333,10.9583333 C0.708333333,12.1091667 1.64166667,13.0416667 2.79166667,13.0416667 L13.2083333,13.0416667 C14.3591667,13.0416667 15.2916667,12.1091667 15.2916667,10.9583333 L15.2916667,5.05083333 C15.2916667,3.9 14.3591667,2.9675 13.2083333,2.9675 Z" id="folders"></path>
        </g>
        <path d="M12.2024169,9.29869152 L9.86723481,11.8140941 C9.84327565,11.8396946 9.81541616,11.8450529 9.79647171,11.8450529 C9.77697007,11.8450529 9.75022497,11.8396946 9.72626581,11.8140941 L7.38105432,9.29809616 C7.21779774,9.12305986 6.95368982,9.12305986 6.78987604,9.29690544 C6.62606227,9.47075101 6.62550508,9.75354775 6.78876166,9.92858405 L9.13341596,12.4439866 C9.31060229,12.633907 9.54517915,12.7380952 9.79647171,12.7380952 L9.7970289,12.7380952 C10.0477643,12.7374999 10.2834555,12.6333116 10.4600847,12.4422005 L12.7952667,9.92798869 C12.9579661,9.75295239 12.9568517,9.46956029 12.7935952,9.29631007 C12.6297814,9.1224645 12.3651163,9.12365522 12.2024169,9.29869152" id="Fill-1" stroke="#797979" stroke-width="0.6" fill="#797979" fill-rule="nonzero"></path>
    </g>
</svg>