<?xml version="1.0" encoding="UTF-8"?>
<svg width="20px" height="20px" viewBox="0 0 20 20" version="1.1" xmlns="http://www.w3.org/2000/svg" xmlns:xlink="http://www.w3.org/1999/xlink">
    <!-- Generator: Sketch 63.1 (92452) - https://sketch.com -->
    <title>internet_pc_ic_more</title>
    <desc>Created with Sketch.</desc>
    <g id="internet_pc_ic_more" stroke="none" stroke-width="1" fill="none" fill-rule="evenodd">
        <g id="Common/menu_more" transform="translate(8.000000, 3.000000)" fill="#000000" fill-rule="nonzero">
            <path d="M2,10.9583333 C2.69,10.9583333 3.25,11.5183333 3.25,12.2083333 C3.25,12.8983333 2.69,13.4583333 2,13.4583333 C1.31,13.4583333 0.75,12.8983333 0.75,12.2083333 C0.75,11.5183333 1.31,10.9583333 2,10.9583333 Z M2,5.75 C2.69,5.75 3.25,6.31 3.25,7 C3.25,7.69 2.69,8.25 2,8.25 C1.31,8.25 0.75,7.69 0.75,7 C0.75,6.31 1.31,5.75 2,5.75 Z M2,0.541666667 C2.69,0.541666667 3.25,1.10166667 3.25,1.79166667 C3.25,2.48166667 2.69,3.04166667 2,3.04166667 C1.31,3.04166667 0.75,2.48166667 0.75,1.79166667 C0.75,1.10166667 1.31,0.541666667 2,0.541666667 Z" id="menu_more"></path>
        </g>
    </g>
</svg>