<svg xmlns="http://www.w3.org/2000/svg" xmlns:xlink="http://www.w3.org/1999/xlink" width="32" height="32" viewBox="0 0 32 32"><defs><polygon id="a" points="0 0 32 0 32 32 0 32"/></defs><g fill="none" fill-rule="evenodd"><mask id="b" fill="#fff"><use xlink:href="#a"/></mask><path fill="#6E77EB" d="M31.7064889,11.2297778 C31.3127111,8.25822222 30.2611556,5.56577778 28.4064889,3.59333333 L28.4060444,3.59333333 C26.4340444,1.73911111 23.7416,0.687111111 20.7700444,0.293777778 C17.9318222,-0.0822222222 15.9998222,0.00977777778 15.9998222,0.00977777778 C15.9998222,0.00977777778 14.0673778,-0.0822222222 11.2296,0.293777778 C8.25804444,0.687111111 5.5656,1.73911111 3.5936,3.59333333 L3.59315556,3.59333333 C1.73893333,5.56577778 0.687377778,8.25822222 0.2936,11.2297778 C-0.0828444444,14.0675556 0.0100444444,16 0.0100444444,16 C0.0100444444,16 -0.0828444444,17.9324444 0.2936,20.7702222 C0.687377778,23.7413333 1.73893333,26.4342222 3.59315556,28.4062222 L3.5936,28.4066667 C5.5656,30.2608889 8.25804444,31.3128889 11.2296,31.7066667 C14.0673778,32.0826667 15.9998222,31.9897778 15.9998222,31.9897778 C15.9998222,31.9897778 17.9318222,32.0826667 20.7700444,31.7066667 C23.7416,31.3128889 26.4340444,30.2608889 28.4060444,28.4066667 L28.4064889,28.4062222 C30.2611556,26.4342222 31.3127111,23.7413333 31.7064889,20.7702222 C32.0824889,17.9324444 31.9896,16 31.9896,16 C31.9896,16 32.0824889,14.0675556 31.7064889,11.2297778" mask="url(#b)"/><g transform="translate(5.422 7.446)"><path fill="#FFF" d="M18.682477,6.18243117 C19.9322548,10.6744312 17.3033659,15.3286534 12.8113659,16.5779867 C8.31936589,17.8277645 3.66469922,15.1988756 2.41536589,10.7068756 C1.16603256,6.21487561 3.794477,1.56020895 8.286477,0.310875613 C12.7789214,-0.93845772 17.4331437,1.68998672 18.682477,6.18243117"/><path fill="#4754B4" d="M5.04705478,4.52194228 C3.637277,4.52194228 2.79772144,4.80638672 2.67861033,5.11660895 C2.429277,5.76638672 4.61861033,8.40949784 9.80705478,10.3619423 C14.9959437,12.3139423 18.4048326,11.7779423 18.6550548,11.1281645 C18.9043881,10.4779423 16.7150548,7.83483117 11.5266103,5.88238672 C8.81549922,4.86238672 6.58972144,4.52194228 5.04705478,4.52194228 M16.2394992,14.3446089 C14.0194992,14.3446089 11.361277,13.7708312 8.86038811,12.8299423 C3.65238811,10.8699423 -0.999167445,7.26905339 0.186610333,4.17883117 C1.37283256,1.08860895 7.265277,1.45527561 12.473277,3.41438672 C17.681277,5.37438672 22.3328326,8.97527561 21.1470548,12.0659423 L21.1470548,12.0659423 C20.5306103,13.6721645 18.6421659,14.3446089 16.2394992,14.3446089"/><path fill="#FFF" d="M2.77514367,5.15683117 L18.5466992,11.1488312 C19.072477,9.5981645 19.1542548,7.87905339 18.6826992,6.18260895 C17.4329214,1.6901645 12.7786992,-0.938279942 8.28669922,0.311053391 C5.70714367,1.02838672 3.744477,2.86927561 2.77514367,5.15683117"/></g></g></svg>