<?xml version="1.0" encoding="UTF-8"?>
<svg width="20px" height="20px" viewBox="0 0 20 20" version="1.1" xmlns="http://www.w3.org/2000/svg" xmlns:xlink="http://www.w3.org/1999/xlink">
    <!-- Generator: Sketch 63.1 (92452) - https://sketch.com -->
    <title>internet_pc_ic_add_dark</title>
    <desc>Created with Sketch.</desc>
    <g id="internet_pc_ic_add_dark" stroke="none" stroke-width="1" fill="none" fill-rule="evenodd" stroke-linecap="round" stroke-linejoin="round">
        <g id="Group-7" transform="translate(2.708333, 2.916667)" stroke="#FFFFFF" stroke-width="1.25">
            <path d="M7.83093354,12.1822917 L7.69343354,12.1014583 C7.45426688,11.928125 7.13093354,11.928125 6.89260021,12.1014583 L3.60760021,14.0339583 C3.07343354,14.4214583 2.35593354,13.8997917 2.55926688,13.2722917 L3.13260021,9.63729167 C3.22426688,9.35729167 3.12426688,9.04979167 2.88510021,8.87645833 L0.281766877,6.26229167 C-0.251566457,5.87479167 0.0226002099,5.02979167 0.68260021,5.02979167 L4.28843354,4.34895833 C4.58426688,4.34895833 4.84510021,4.15895833 4.93593354,3.878125 L6.64510021,0.470625 C6.84843354,-0.156875 7.73676688,-0.156875 7.94093354,0.470625 L9.65010021,3.878125 C9.74093354,4.15895833 10.0017669,4.34895833 10.2976002,4.34895833 L13.9034335,5.02979167 C14.5634335,5.02979167 14.8376002,5.87479167 14.3042669,6.26229167 L13.3834335,7.18645833" id="Stroke-1"></path>
            <line x1="12.2930169" y1="9.16670833" x2="12.2930169" y2="14.1667083" id="Stroke-3"></line>
            <line x1="14.7930169" y1="11.6667083" x2="9.79301688" y2="11.6667083" id="Stroke-5"></line>
        </g>
    </g>
</svg>