<?xml version="1.0" encoding="UTF-8"?>
<svg width="20px" height="20px" viewBox="0 0 20 20" version="1.1" xmlns="http://www.w3.org/2000/svg" xmlns:xlink="http://www.w3.org/1999/xlink">
    <!-- Generator: Sketch 63.1 (92452) - https://sketch.com -->
    <title>internet_pc_ic_show_view</title>
    <desc>Created with Sketch.</desc>
    <g id="internet_pc_ic_show_view" stroke="none" stroke-width="1" fill="none" fill-rule="evenodd" stroke-linecap="round" stroke-linejoin="round">
        <path d="M10.2083333,4.375 C13.06,4.375 15.6191667,5.78666667 17.3591667,8.02 C18.38,9.32916667 18.38,11.2966667 17.3591667,12.6058333 C15.6191667,14.8391667 13.06,16.25 10.2083333,16.25 C7.35666667,16.25 4.7975,14.8391667 3.05666667,12.6058333 C2.03666667,11.2966667 2.03666667,9.32916667 3.05666667,8.02 C4.7975,5.78666667 7.35666667,4.375 10.2083333,4.375 Z M10.2083333,6.97916667 C8.36666667,6.97916667 6.875,8.47166667 6.875,10.3125 C6.875,12.1533333 8.36666667,13.6458333 10.2083333,13.6458333 C12.0491667,13.6458333 13.5416667,12.1533333 13.5416667,10.3125 C13.5416667,8.47166667 12.0491667,6.97916667 10.2083333,6.97916667 Z" id="view_eye_show" stroke="#000000" stroke-width="1.25"></path>
    </g>
</svg>