<?xml version="1.0" encoding="UTF-8"?>
<svg width="32px" height="32px" viewBox="0 0 32 32" version="1.1" xmlns="http://www.w3.org/2000/svg" xmlns:xlink="http://www.w3.org/1999/xlink">
    <!-- Generator: Sketch 63.1 (92452) - https://sketch.com -->
    <title>internet_pc_ic_Checkbox_on_dark</title>
    <desc>Created with Sketch.</desc>
    <g id="internet_pc_ic_Checkbox_on_dark" stroke="none" stroke-width="1" fill="none" fill-rule="evenodd">
        <g id="Mobile/Dark_theme/03_CONTROLLER/Checkbox_on" fill="#0381FE">
            <path d="M21.4666667,14.0333333 L16.0996667,19.4 C15.8333333,19.6666667 15.4666667,19.8333333 15.0666667,19.8333333 C14.6663333,19.8333333 14.3,19.6666667 14.0333333,19.4 L10.5333333,15.9333333 C10.1666667,15.5666667 10.1666667,15 10.5333333,14.6336667 C10.9003333,14.2666667 11.4666667,14.2666667 11.8333333,14.6336667 L15.0333333,17.8336667 L20.1333333,12.7333333 C20.5,12.3666667 21.0666667,12.3666667 21.4326667,12.7333333 C21.8,13.1 21.8333333,13.6666667 21.4666667,14.0333333 M16,5.66666667 C10.3,5.66666667 5.66666667,10.3 5.66666667,16 C5.66666667,21.7 10.3,26.3333333 16,26.3333333 C21.6996667,26.3333333 26.3333333,21.7 26.3333333,16 C26.3333333,10.3 21.6996667,5.66666667 16,5.66666667" id="_x30_26_1_"></path>
        </g>
    </g>
</svg>