<?xml version="1.0" encoding="UTF-8"?>
<svg width="20px" height="20px" viewBox="0 0 20 20" version="1.1" xmlns="http://www.w3.org/2000/svg" xmlns:xlink="http://www.w3.org/1999/xlink">
    <!-- Generator: Sketch 63.1 (92452) - https://sketch.com -->
    <title>internet_pc_ic_settings</title>
    <desc>Created with Sketch.</desc>
    <g id="internet_pc_ic_settings" stroke="none" stroke-width="1" fill="none" fill-rule="evenodd" stroke-linecap="round" stroke-linejoin="round">
        <path d="M11.2151157,2.85416667 C11.4442823,2.85416667 11.678449,3.03583333 11.735949,3.2575 L11.735949,3.2575 L12.1251157,4.77333333 C12.1826157,4.995 12.633449,5.38666667 12.778449,5.47916667 C12.923449,5.5725 13.2226157,5.59833333 13.443449,5.5375 L13.443449,5.5375 L14.9442823,5.11916667 C15.1651157,5.0575 15.4392823,5.16916667 15.553449,5.36833333 L15.553449,5.36833333 L16.770949,7.485 C16.8851157,7.68416667 16.8442823,7.97833333 16.6817823,8.13916667 L16.6817823,8.13916667 L15.5692823,9.23583333 C15.405949,9.39666667 15.2826157,9.66916667 15.2951157,9.84083333 L15.2951157,9.84083333 L15.2951157,10.1575 C15.2826157,10.3291667 15.405949,10.6025 15.5692823,10.7633333 L15.5692823,10.7633333 L16.6817823,11.8591667 C16.8442823,12.0208333 16.8851157,12.315 16.770949,12.5133333 L16.770949,12.5133333 L15.553449,14.63 C15.4392823,14.8283333 15.1651157,14.9408333 14.9442823,14.8791667 L14.9442823,14.8791667 L13.443449,14.4608333 C13.2226157,14.3991667 12.660949,14.595 12.5076157,14.675 C12.3551157,14.7558333 12.1826157,15.0025 12.125949,15.225 L12.125949,15.225 L11.735949,16.7408333 C11.678449,16.9625 11.4442823,17.1441667 11.2151157,17.1441667 L11.2151157,17.1441667 L8.783449,17.1441667 C8.55428234,17.1441667 8.32011567,16.9625 8.263449,16.7408333 L8.263449,16.7408333 L7.87261567,15.225 C7.81511567,15.0025 7.36428234,14.6116667 7.21928234,14.5183333 C7.07428234,14.4258333 6.77511567,14.3991667 6.55428234,14.4608333 L6.55428234,14.4608333 L5.05428234,14.8791667 C4.833449,14.9408333 4.55928234,14.8283333 4.44511567,14.63 L4.44511567,14.63 L3.228449,12.5133333 C3.113449,12.315 3.153449,12.0208333 3.31678234,11.8591667 L3.31678234,11.8591667 L4.428449,10.7633333 C4.59178234,10.6025 4.71511567,10.3291667 4.703449,10.1575 L4.703449,10.1575 L4.703449,9.84083333 C4.71511567,9.66916667 4.59178234,9.39583333 4.428449,9.235 L4.428449,9.235 L3.315949,8.13916667 C3.153449,7.97833333 3.113449,7.68416667 3.22761567,7.485 L3.22761567,7.485 L4.44511567,5.36833333 C4.55928234,5.16916667 4.833449,5.0575 5.05428234,5.11916667 L5.05428234,5.11916667 L6.55428234,5.5375 C6.77511567,5.59833333 7.33678234,5.4025 7.49011567,5.3225 C7.643449,5.2425 7.81511567,4.995 7.87261567,4.77333333 L7.87261567,4.77333333 L8.26261567,3.2575 C8.31928234,3.03583333 8.55428234,2.85416667 8.783449,2.85416667 L8.783449,2.85416667 Z M9.99886567,7.72083333 C8.74136567,7.72083333 7.72136567,8.74083333 7.72136567,9.99916667 C7.72136567,11.2566667 8.74136567,12.2775 9.99886567,12.2775 C11.257199,12.2775 12.277199,11.2566667 12.277199,9.99916667 C12.277199,8.74083333 11.257199,7.72083333 9.99886567,7.72083333 Z" id="settings" stroke="#000000" stroke-width="1.25"></path>
    </g>
</svg>