<?xml version="1.0" encoding="UTF-8"?>
<svg width="32px" height="32px" viewBox="0 0 32 32" version="1.1" xmlns="http://www.w3.org/2000/svg" xmlns:xlink="http://www.w3.org/1999/xlink">
    <!-- Generator: Sketch 63.1 (92452) - https://sketch.com -->
    <title>internet_pc_ic_Reorder_dim_dark</title>
    <desc>Created with Sketch.</desc>
    <g id="internet_pc_ic_Reorder_dim_dark" stroke="none" stroke-width="1" fill="none" fill-rule="evenodd" opacity="0.400000006">
        <g id="Mobile/Dark_theme/03_CONTROLLER/Reorder_dim" fill="#747474" fill-rule="nonzero">
            <path d="M10.6120132,18.76085 C10.9060132,18.46885 11.3800132,18.46885 11.6730132,18.76285 L11.6730132,18.76285 L15.8820132,22.98885 C15.9250132,23.03185 15.9730132,23.04085 16.0080132,23.04085 C16.0420132,23.04085 16.0920132,23.03185 16.1350132,22.98885 L16.1350132,22.98885 L20.3260132,18.76385 C20.6180132,18.46985 21.0930132,18.46785 21.3870132,18.75985 C21.6800132,19.05085 21.6820132,19.52685 21.3900132,19.82085 L21.3900132,19.82085 L17.1990132,24.04385 C16.8820132,24.36485 16.4590132,24.53985 16.0090132,24.54085 L16.0090132,24.54085 C15.5570132,24.54085 15.1360132,24.36585 14.8180132,24.04685 L14.8180132,24.04685 L10.6100132,19.82185 C10.3170132,19.52785 10.3180132,19.05285 10.6120132,18.76085 Z M15.9918132,7.45915 C16.4398132,7.45915 16.8618132,7.63415 17.1788132,7.95115 L17.1788132,7.95115 L21.4048132,12.18015 C21.6978132,12.47315 21.6978132,12.94715 21.4048132,13.24015 C21.1118132,13.53315 20.6378132,13.53315 20.3448132,13.24015 L20.3448132,13.24015 L16.1178132,9.01115 C16.0748132,8.96815 16.0248132,8.95915 15.9918132,8.95915 L15.9918132,8.95915 C15.9578132,8.95915 15.9078132,8.96815 15.8648132,9.01215 L15.8648132,9.01215 L11.6558132,13.23915 C11.5098132,13.38615 11.3168132,13.46015 11.1248132,13.46015 C10.9338132,13.46015 10.7418132,13.38715 10.5958132,13.24115 C10.3028132,12.94915 10.3018132,12.47515 10.5938132,12.18115 L10.5938132,12.18115 L14.8018132,7.95315 C15.1188132,7.63515 15.5408132,7.45915 15.9898132,7.45915 L15.9898132,7.45915 Z" id="Reorder-(handle-settings)"></path>
        </g>
    </g>
</svg>