<?xml version="1.0" encoding="UTF-8"?>
<svg width="36px" height="20px" viewBox="0 0 36 20" version="1.1" xmlns="http://www.w3.org/2000/svg" xmlns:xlink="http://www.w3.org/1999/xlink">
    <!-- Generator: Sketch 63.1 (92452) - https://sketch.com -->
    <title>internet_pc_ic_popup_openfolder2</title>
    <desc>Created with Sketch.</desc>
    <defs>
        <path d="M8.10849897,11.1579023 C8.07409897,11.1923023 8.03409897,11.1995023 8.00689897,11.1995023 C7.97889897,11.1995023 7.94049897,11.1923023 7.90609897,11.1579023 L4.53889897,7.7771023 C4.30449897,7.5419023 3.92529897,7.5419023 3.69009897,7.7755023 C3.45489897,8.0091023 3.45409897,8.3891023 3.68849897,8.6243023 L7.05489897,12.0043023 C7.30929897,12.2595023 7.64609897,12.3995023 8.00689897,12.3995023 C8.36769897,12.3987023 8.70609897,12.2587023 8.95969897,12.0019023 L12.312499,8.6235023 C12.546099,8.3883023 12.544499,8.0075023 12.310099,7.7747023 C12.074899,7.5411023 11.694899,7.5427023 11.461299,7.7779023 L8.10849897,11.1579023 Z" id="path-1"></path>
    </defs>
    <g id="internet_pc_ic_popup_openfolder2" stroke="none" stroke-width="1" fill="none" fill-rule="evenodd">
        <g id="Common/folder" transform="translate(18.000000, 3.000000)" stroke="#797979" stroke-linecap="round" stroke-linejoin="round" stroke-width="1.25">
            <path d="M13.2083333,2.9675 L9.35416667,2.9675 C9.01083333,2.9675 8.52833333,2.77083333 8.2825,2.53083333 L7.12083333,1.395 C6.875,1.155 6.3925,0.958333333 6.04833333,0.958333333 L2.79166667,0.958333333 C1.64166667,0.958333333 0.708333333,1.89083333 0.708333333,3.04166667 L0.708333333,10.9583333 C0.708333333,12.1091667 1.64166667,13.0416667 2.79166667,13.0416667 L13.2083333,13.0416667 C14.3591667,13.0416667 15.2916667,12.1091667 15.2916667,10.9583333 L15.2916667,5.05083333 C15.2916667,3.9 14.3591667,2.9675 13.2083333,2.9675 Z" id="folders"></path>
        </g>
        <mask id="mask-2" fill="white">
            <use xlink:href="#path-1"></use>
        </mask>
        <use id="Fill-1" fill="#797979" fill-rule="nonzero" xlink:href="#path-1"></use>
    </g>
</svg>