<?xml version="1.0" encoding="UTF-8"?>
<svg width="20px" height="20px" viewBox="0 0 20 20" version="1.1" xmlns="http://www.w3.org/2000/svg" xmlns:xlink="http://www.w3.org/1999/xlink">
    <!-- Generator: Sketch 63.1 (92452) - https://sketch.com -->
    <title>internet_pc_ic_closefolder_dark</title>
    <desc>Created with Sketch.</desc>
    <g id="internet_pc_ic_closefolder_dark" stroke="none" stroke-width="1" fill="none" fill-rule="evenodd">
        <g id="Common/folder" transform="translate(2.000000, 3.000000)" stroke="#999999" stroke-linecap="round" stroke-linejoin="round" stroke-width="1.25">
            <path d="M13.2083333,2.9675 L9.35416667,2.9675 C9.01083333,2.9675 8.52833333,2.77083333 8.2825,2.53083333 L7.12083333,1.395 C6.875,1.155 6.3925,0.958333333 6.04833333,0.958333333 L2.79166667,0.958333333 C1.64166667,0.958333333 0.708333333,1.89083333 0.708333333,3.04166667 L0.708333333,10.9583333 C0.708333333,12.1091667 1.64166667,13.0416667 2.79166667,13.0416667 L13.2083333,13.0416667 C14.3591667,13.0416667 15.2916667,12.1091667 15.2916667,10.9583333 L15.2916667,5.05083333 C15.2916667,3.9 14.3591667,2.9675 13.2083333,2.9675 Z" id="folders"></path>
        </g>
        <path d="M12.8143202,9.44423421 L10.5725454,11.5571724 C10.5495446,11.5786768 10.5227995,11.5831778 10.5046128,11.5831778 C10.4858913,11.5831778 10.460216,11.5786768 10.4372152,11.5571724 L8.18581215,9.44373411 C8.02908583,9.29670362 7.77554222,9.29670362 7.618281,9.4427339 C7.46101978,9.58876418 7.46048487,9.82631344 7.6172112,9.97334393 L9.86807932,12.0862821 C10.0381782,12.2458152 10.263372,12.3333333 10.5046128,12.3333333 L10.5051477,12.3333333 C10.7458537,12.3328332 10.9721173,12.2453151 11.1416813,12.0847818 L13.3834561,9.97284383 C13.5396475,9.82581334 13.5385777,9.58776398 13.3818514,9.4422338 C13.2245901,9.29620351 12.9705116,9.29720372 12.8143202,9.44423421" id="Fill-1" stroke="#999999" stroke-width="0.3" fill="#999999" fill-rule="nonzero" transform="translate(10.500000, 10.833333) rotate(-90.000000) translate(-10.500000, -10.833333) "></path>
    </g>
</svg>