<?xml version="1.0" encoding="UTF-8"?>
<svg width="16px" height="16px" viewBox="0 0 16 16" version="1.1" xmlns="http://www.w3.org/2000/svg" xmlns:xlink="http://www.w3.org/1999/xlink">
    <!-- Generator: Sketch 63.1 (92452) - https://sketch.com -->
    <title>internet_pc_ic_drawer_list_shrink</title>
    <desc>Created with Sketch.</desc>
    <defs>
        <path d="M0.599501154,4.8008 C0.753101154,4.8008 0.907501154,4.7416 1.02430115,4.624 L4.39150115,1.2424 C4.42590115,1.2072 4.46590115,1.2 4.49230115,1.2 L4.49310115,1.2 C4.51950115,1.2 4.55950115,1.2072 4.59390115,1.2416 L7.97550115,4.6248 C8.20990115,4.8592 8.58910115,4.8592 8.82350115,4.6248 C9.05790115,4.3904 9.05790115,4.0112 8.82350115,3.7768 L5.44270115,0.3936 C5.18910115,0.14 4.85150115,0 4.49310115,0 L4.49150115,0 C4.13230115,0 3.79470115,0.1408 3.54110115,0.3952 L0.174701154,3.7776 C-0.0588988462,4.0128 -0.0580988462,4.392 0.176301154,4.6256 C0.293101154,4.7424 0.446701154,4.8008 0.599501154,4.8008" id="path-1"></path>
    </defs>
    <g id="internet_pc_ic_drawer_list_shrink" stroke="none" stroke-width="1" fill="none" fill-rule="evenodd">
        <g id="Group" transform="translate(3.500349, 5.599600)">
            <mask id="mask-2" fill="white">
                <use xlink:href="#path-1"></use>
            </mask>
            <use id="Fill-3" fill="#797979" xlink:href="#path-1"></use>
        </g>
    </g>
</svg>