<?xml version="1.0" encoding="UTF-8"?>
<svg width="20px" height="20px" viewBox="0 0 20 20" version="1.1" xmlns="http://www.w3.org/2000/svg" xmlns:xlink="http://www.w3.org/1999/xlink">
    <!-- Generator: Sketch 63.1 (92452) - https://sketch.com -->
    <title>internet_pc_ic_popup_add</title>
    <desc>Created with Sketch.</desc>
    <g id="internet_pc_ic_popup_add" stroke="none" stroke-width="1" fill="none" fill-rule="evenodd">
        <g id="PC/Light_theme/03_CONTROLLER/Add" fill="#00A53C">
            <g id="Mobile/Light_theme/03_CONTROLLER/Add">
                <path d="M15.234375,9.53125 L10.46875,9.53125 L10.46875,4.765625 C10.46875,4.506875 10.25875,4.296875 10,4.296875 C9.74125,4.296875 9.53125,4.506875 9.53125,4.765625 L9.53125,9.53125 L4.765625,9.53125 C4.506875,9.53125 4.296875,9.74125 4.296875,10 C4.296875,10.25875 4.506875,10.46875 4.765625,10.46875 L9.53125,10.46875 L9.53125,15.234375 C9.53125,15.493125 9.74125,15.703125 10,15.703125 C10.25875,15.703125 10.46875,15.493125 10.46875,15.234375 L10.46875,10.46875 L15.234375,10.46875 C15.493125,10.46875 15.703125,10.25875 15.703125,10 C15.703125,9.74125 15.493125,9.53125 15.234375,9.53125" id="Add-/-Create-/-New"></path>
            </g>
        </g>
    </g>
</svg>