<?xml version="1.0" encoding="UTF-8"?>
<svg width="20px" height="20px" viewBox="0 0 20 20" version="1.1" xmlns="http://www.w3.org/2000/svg" xmlns:xlink="http://www.w3.org/1999/xlink">
    <!-- Generator: Sketch 63.1 (92452) - https://sketch.com -->
    <title>internet_pc_ic_bookmarks</title>
    <desc>Created with Sketch.</desc>
    <g id="internet_pc_ic_bookmarks" stroke="none" stroke-width="1" fill="none" fill-rule="evenodd" stroke-linecap="round" stroke-linejoin="round">
        <g id="Group-17" transform="translate(2.083333, 2.500000)" stroke="#000000" stroke-width="1.25">
            <path d="M9.4505,9.5835 L15.1588333,9.5835 M9.4505,12.01675 L13.373,12.01675 M9.4505,14.4581667 L12.3863333,14.4581667" id="Combined-Shape"></path>
            <path d="M6.8805,12.7206667 L4.148,14.329 C3.62716667,14.7073333 2.9255,14.1973333 3.12466667,13.5848333 L3.68466667,10.0356667 C3.773,9.7615 3.6755,9.4615 3.443,9.29233333 L0.9005,6.73983333 C0.378833333,6.36066667 0.647166667,5.5365 1.29133333,5.5365 L4.813,4.8715 C5.1005,4.8715 5.35633333,4.68566667 5.4455,4.4115 L7.11383333,1.08483333 C7.31383333,0.472333333 8.1805,0.472333333 8.37966667,1.08483333 L10.048,4.4115 C10.1363333,4.68566667 10.3921667,4.8715 10.6805,4.8715 L14.2013333,5.5365 C14.8463333,5.5365 15.1138333,6.36066667 14.593,6.73983333 L14.018,7.31733333" id="Stroke-15"></path>
        </g>
    </g>
</svg>