<?xml version="1.0" encoding="UTF-8"?>
<svg width="20px" height="20px" viewBox="0 0 20 20" version="1.1" xmlns="http://www.w3.org/2000/svg" xmlns:xlink="http://www.w3.org/1999/xlink">
    <!-- Generator: Sketch 63.1 (92452) - https://sketch.com -->
    <title>internet_pc_ic_edit_dark</title>
    <desc>Created with Sketch.</desc>
    <g id="internet_pc_ic_edit_dark" stroke="none" stroke-width="1" fill="none" fill-rule="evenodd" stroke-linecap="round" stroke-linejoin="round">
        <g id="Common/edit_rename" transform="translate(3.000000, 3.000000)" stroke="#FFFFFF" stroke-width="1.25">
            <path d="M6.18475,12.3968333 C6.02475,12.5568333 5.41391667,13.0193333 5.18725,13.0643333 L0.880583333,13.9085 C0.653916667,13.9535 0.505583333,13.8043333 0.54975,13.5776667 L1.39475,9.2735 C1.43975,9.04683333 1.90141667,8.43516667 2.06141667,8.27516667 M6.34183333,12.2438333 C6.0985,12.4871667 5.701,12.4871667 5.45766667,12.2438333 L2.21683333,9.003 C1.97433333,8.75966667 1.97433333,8.36216667 2.21683333,8.11883333 L9.306,1.02966667 C9.95683333,0.378833333 11.0118333,0.378833333 11.6635,1.02966667 L13.431,2.798 C14.0818333,3.448 14.0818333,4.503 13.431,5.15466667 L6.34183333,12.2438333 Z" id="Combined-Shape"></path>
        </g>
    </g>
</svg>