<svg xmlns="http://www.w3.org/2000/svg" width="24" height="24" viewBox="0 0 24 24"><g fill="none" fill-rule="evenodd"><path fill="#1D49C2" d="M23.7800485,8.42223868 C23.4845493,6.19375987 22.6960514,4.17444575 21.3048885,2.69512649 L21.3045552,2.69512649 C19.8257259,1.30413972 17.8060646,0.515480557 15.5775707,0.220483363 C13.4490764,-0.0616806193 11.9999137,0.00748538942 11.9999137,0.00748538942 C11.9999137,0.00748538942 10.5504176,-0.0616806193 8.42225665,0.220483363 C6.19342933,0.515480557 4.17426812,1.30413972 2.69527211,2.69512649 L2.69493878,2.69512649 C1.30427587,4.17444575 0.515277997,6.19375987 0.220112127,8.42223868 C-0.0620537779,10.5507184 0.00761270069,12.0002046 0.00761270069,12.0002046 C0.00761270069,12.0002046 -0.0620537779,13.4491909 0.220112127,15.5778373 C0.515277997,17.8061494 1.30427587,19.8256302 2.69493878,21.3047828 L2.69527211,21.3051161 C4.17426812,22.6957696 6.19342933,23.4847621 8.42225665,23.7799259 C10.5504176,24.0619232 11.9999137,23.9924239 11.9999137,23.9924239 C11.9999137,23.9924239 13.4490764,24.0619232 15.5775707,23.7799259 C17.8060646,23.4847621 19.8257259,22.6957696 21.3045552,21.3051161 L21.3048885,21.3047828 C22.6960514,19.8256302 23.4845493,17.8061494 23.7800485,15.5778373 C24.0620478,13.4491909 23.9923813,12.0002046 23.9923813,12.0002046 C23.9923813,12.0002046 24.0620478,10.5507184 23.7800485,8.42223868"/><path fill="#FFF" d="M4.41712849,9.70092277 L4.41712849,11.9088571 L5.24588383,11.9088571 C5.40525986,11.9088571 5.55135455,11.8801293 5.68416791,11.8226738 C5.81681525,11.7652183 5.93120075,11.6858749 6.02682637,11.5848147 C6.12245198,11.4835835 6.19682746,11.3657655 6.24995281,11.2317025 C6.30291213,11.0978106 6.32964082,10.9540008 6.32964082,10.800957 C6.32964082,10.6475712 6.30291213,10.5039324 6.24995281,10.3698694 C6.19682746,10.2358065 6.12245198,10.1195274 6.02682637,10.0210322 C5.93120075,9.922537 5.81681525,9.84456163 5.68416791,9.78710609 C5.55135455,9.72965055 5.40525986,9.70092277 5.24588383,9.70092277 L4.41712849,9.70092277 Z M3.3333715,8.66672305 L5.32557184,8.66672305 C5.6283863,8.66672305 5.90729435,8.7228106 6.16229599,8.8351567 C6.41729764,8.9473318 6.63760179,9.09900759 6.82370651,9.29069706 C7.00964521,9.48221552 7.15557388,9.70793372 7.26199058,9.96785164 C7.36824127,10.2275986 7.42136661,10.5053003 7.42136661,10.800957 C7.42136661,11.0962716 7.36824127,11.3753414 7.26199058,11.6379953 C7.15557388,11.9006492 7.00964521,12.1277354 6.82370651,12.3194248 C6.63760179,12.5109433 6.4159695,12.6627901 6.15831159,12.7747942 C5.90048766,12.8869693 5.6204175,12.9430568 5.31760304,12.9430568 L4.41712849,12.9430568 L4.41712849,14.6585151 L3.3333715,14.6585151 L3.3333715,8.66672305 Z M10.0989005,13.6489221 C10.3007768,13.6489221 10.4865495,13.6130124 10.6567166,13.541193 C10.8267177,13.4690315 10.9726463,13.3688263 11.0950007,13.2402354 C11.2171889,13.1118154 11.3141427,12.9627046 11.3858619,12.7932449 C11.4575811,12.6237853 11.4934407,12.4413298 11.4934407,12.2460493 C11.4934407,12.0558988 11.4575811,11.8760083 11.3858619,11.7063776 C11.3141427,11.536747 11.2171889,11.3890042 11.0950007,11.2631492 C10.9726463,11.1371232 10.8267177,11.038115 10.6567166,10.9662956 C10.4865495,10.8944761 10.3007768,10.8583954 10.0989005,10.8583954 C9.90233671,10.8583954 9.71772615,10.8944761 9.54506878,10.9662956 C9.37241142,11.038115 9.22233233,11.1359262 9.0948315,11.2590452 C8.96733068,11.3825062 8.86772066,11.529052 8.79600145,11.6986827 C8.72428224,11.8683133 8.68842263,12.0505979 8.68842263,12.2460493 C8.68842263,12.4413298 8.72428224,12.6251533 8.79600145,12.7971779 C8.86772066,12.9692025 8.96733068,13.1181423 9.0948315,13.2443393 C9.22233233,13.3701943 9.37241142,13.4690315 9.54506878,13.541193 C9.71772615,13.6130124 9.90233671,13.6489221 10.0989005,13.6489221 M9.92358685,14.6667059 C9.64202253,14.6667059 9.36444262,14.6128414 9.0908471,14.5047702 C8.81725159,14.3965281 8.57154688,14.2395514 8.35373297,14.03384 C8.13591907,13.8281287 7.96043942,13.5762477 7.82779208,13.2783681 C7.69497873,12.9803174 7.62857205,12.6413982 7.62857205,12.2617812 C7.62857205,11.8766923 7.69348458,11.535379 7.82380768,11.2371574 C7.95396477,10.9391068 8.12662214,10.6873968 8.34177977,10.4816854 C8.55693741,10.2758031 8.80397025,10.1189973 9.0828783,10.0110972 C9.36178635,9.90285506 9.64733507,9.84864849 9.93952445,9.84864849 C10.2476514,9.84864849 10.531872,9.90610403 10.7921862,10.0206731 C11.0523344,10.1355842 11.267658,10.2920479 11.4376591,10.4902354 L11.4376591,9.85685643 L12.5134473,9.85685643 L12.5134473,14.658498 L11.4376591,14.658498 L11.4376591,13.9762135 C11.267658,14.1906458 11.0498441,14.3594214 10.7842174,14.4823694 C10.5185907,14.6053174 10.2317138,14.6667059 9.92358685,14.6667059 M14.8801149,14.666723 C14.3647991,14.666723 13.9371401,14.5680568 13.5971379,14.3705534 C13.2571357,14.172879 12.9941652,13.8874823 12.8082265,13.5140213 L13.8043267,13.052325 C13.9158899,13.2626533 14.0672972,13.424247 14.2585484,13.5372771 C14.4497996,13.6501362 14.6729261,13.7063947 14.9279277,13.7063947 C15.1935544,13.7063947 15.3927745,13.6516752 15.5255878,13.542236 C15.6582352,13.4326259 15.7248079,13.302325 15.7248079,13.1508202 C15.7248079,13.0673728 15.6942608,12.9996574 15.6331666,12.9473318 C15.5720725,12.8953482 15.4923845,12.8495206 15.3941026,12.8105329 C15.2956547,12.7713742 15.1802731,12.7388845 15.0474597,12.7125507 C14.9146464,12.6865589 14.7765205,12.6578311 14.6330821,12.6265384 C14.4310397,12.5848147 14.2333139,12.5353961 14.0394064,12.4779406 C13.8454989,12.420656 13.6715134,12.3409707 13.5174499,12.2393975 C13.3633864,12.1374823 13.2385418,12.0070103 13.1429162,11.8479816 C13.0472906,11.6889529 12.9994778,11.4893975 12.9994778,11.2494864 C12.9994778,11.0666888 13.0433062,10.8907313 13.130963,10.7212716 C13.2186198,10.551641 13.3421362,10.4018462 13.5015123,10.2712032 C13.6608883,10.1409023 13.8533016,10.0379611 14.0792504,9.96220868 C14.3050331,9.88645629 14.5560503,9.84866559 14.8323021,9.84866559 C15.2996391,9.84866559 15.6889482,9.93792688 15.9997315,10.1161075 C16.3105148,10.294459 16.5562195,10.5369351 16.7368456,10.8440486 L15.8204335,11.2901841 C15.7248079,11.1292743 15.5919945,11.0018804 15.4219934,10.9083441 C15.2519923,10.8148079 15.0554285,10.7679542 14.8323021,10.7679542 C14.5773005,10.7679542 14.3887055,10.8175438 14.2665172,10.916723 C14.1441629,11.0159023 14.0832348,11.1308133 14.0832348,11.2612853 C14.0832348,11.4126191 14.1735479,11.5210322 14.354174,11.5860117 C14.5346342,11.6513332 14.8004269,11.7205876 15.1510542,11.793604 C15.3423054,11.8301977 15.5347187,11.8782484 15.7287923,11.9384399 C15.9226998,11.9984604 16.0993415,12.0793427 16.2587175,12.1812579 C16.4180936,12.2830021 16.5469225,12.4133031 16.6452044,12.5726738 C16.7434863,12.7318735 16.7926272,12.9314289 16.7926272,13.171511 C16.7926272,13.3332757 16.7554395,13.5017094 16.681064,13.67647 C16.6065225,13.8512306 16.4911409,14.0131663 16.3344212,14.1617641 C16.1777014,14.3107039 15.9798095,14.4319419 15.7407455,14.5258202 C15.5016814,14.6198694 15.2148046,14.666723 14.8801149,14.666723 M19.0875258,14.666723 C18.57221,14.666723 18.144551,14.5680568 17.8045488,14.3705534 C17.4645466,14.172879 17.2015762,13.8874823 17.0156375,13.5140213 L18.0117376,13.052325 C18.1233009,13.2626533 18.2747081,13.424247 18.4659593,13.5372771 C18.6572106,13.6501362 18.880337,13.7063947 19.1353386,13.7063947 C19.4009654,13.7063947 19.6001854,13.6516752 19.7329987,13.542236 C19.8656461,13.4326259 19.9322188,13.302325 19.9322188,13.1508202 C19.9322188,13.0673728 19.9016717,12.9996574 19.8405776,12.9473318 C19.7794834,12.8953482 19.6997954,12.8495206 19.6015135,12.8105329 C19.5030656,12.7713742 19.387684,12.7388845 19.2548707,12.7125507 C19.1220573,12.6865589 18.9839314,12.6578311 18.840493,12.6265384 C18.6384507,12.5848147 18.4407248,12.5353961 18.2468173,12.4779406 C18.0529098,12.420656 17.8789243,12.3409707 17.7248608,12.2393975 C17.5707973,12.1374823 17.4459527,12.0070103 17.3503271,11.8479816 C17.2547015,11.6889529 17.2068887,11.4893975 17.2068887,11.2494864 C17.2068887,11.0666888 17.2507171,10.8907313 17.3383739,10.7212716 C17.4260307,10.551641 17.5495472,10.4018462 17.7089232,10.2712032 C17.8682992,10.1409023 18.0607126,10.0379611 18.2866613,9.96220868 C18.512444,9.88645629 18.7634612,9.84866559 19.039713,9.84866559 C19.50705,9.84866559 19.8963592,9.93792688 20.2071424,10.1161075 C20.5179257,10.294459 20.7636304,10.5369351 20.9442566,10.8440486 L20.0278444,11.2901841 C19.9322188,11.1292743 19.7994054,11.0018804 19.6294043,10.9083441 C19.4594032,10.8148079 19.2628395,10.7679542 19.039713,10.7679542 C18.7847114,10.7679542 18.5961164,10.8175438 18.4739281,10.916723 C18.3515738,11.0159023 18.2906457,11.1308133 18.2906457,11.2612853 C18.2906457,11.4126191 18.3809588,11.5210322 18.5615849,11.5860117 C18.7420451,11.6513332 19.0078378,11.7205876 19.3584651,11.793604 C19.5497163,11.8301977 19.7421297,11.8782484 19.9362032,11.9384399 C20.1301107,11.9984604 20.3067524,12.0793427 20.4661285,12.1812579 C20.6255045,12.2830021 20.7543335,12.4133031 20.8526153,12.5726738 C20.9508972,12.7318735 21.0000382,12.9314289 21.0000382,13.171511 C21.0000382,13.3332757 20.9628504,13.5017094 20.8884749,13.67647 C20.8139334,13.8512306 20.6985518,14.0131663 20.5418321,14.1617641 C20.3851123,14.3107039 20.1872204,14.4319419 19.9481564,14.5258202 C19.7090923,14.6198694 19.4222155,14.666723 19.0875258,14.666723"/></g></svg>