<?xml version="1.0" encoding="UTF-8"?><svg version="1.1" width="160px" height="30px" viewBox="0 0 160.0 30.0" xmlns="http://www.w3.org/2000/svg" xmlns:xlink="http://www.w3.org/1999/xlink"><defs><clipPath id="i0"><path d="M6.98155,0 C9.8078,0 12.0346,1.44115 13.1955,3.4998 L10.9497,4.8469 C10.10705,3.29365 8.797,2.47 7.00055,2.47 C4.45455,2.47 2.527,4.52865 2.527,7.0186 C2.527,9.5456 4.43555,11.5672 7.09365,11.5672 C9.13425,11.5672 10.5564,10.4063 11.0428,8.60985 L6.6823,8.60985 L6.6823,6.17595 L13.77595,6.17595 L13.77595,7.18675 C13.77595,10.87465 11.1739,14.03815 7.09365,14.03815 C2.82625,14.03815 0,10.7996 0,7.0186 C0,3.1255 2.93835,0 6.98155,0 Z"></path></clipPath><clipPath id="i1"><path d="M5.4283,0 C6.86945,0 8.16145,0.59945 8.9471,1.5352 L8.9471,0.22515 L11.4741,0.22515 L11.4741,11.1739 L8.9471,11.1739 L8.9471,9.75175 C8.14245,10.76255 6.8324,11.39905 5.39125,11.39905 C2.75215,11.39905 0,9.2834 0,5.7095 C0,2.07765 2.6581,0 5.4283,0 Z M5.8026,2.3028 C3.9311,2.3028 2.48995,3.781 2.48995,5.6715 C2.48995,7.581 3.9311,9.0782 5.8026,9.0782 C7.6741,9.0782 9.0782,7.562 9.0782,5.6715 C9.0782,3.81805 7.6741,2.3028 5.8026,2.3028 Z"></path></clipPath><clipPath id="i2"><path d="M114.7182,0 L114.7182,18.90405 L0,18.90405 L0,0 L114.7182,0 Z"></path></clipPath><clipPath id="i3"><path d="M2.54505,0 L2.54505,13.851 L0,13.851 L0,0 L2.54505,0 Z"></path></clipPath><clipPath id="i4"><path d="M5.42735,0 C6.8685,0 8.1605,0.59945 8.94615,1.5352 L8.94615,0.22515 L11.47315,0.22515 L11.47315,11.1739 L8.94615,11.1739 L8.94615,9.75175 C8.1415,10.76255 6.83145,11.39905 5.3903,11.39905 C2.7512,11.39905 0,9.2834 0,5.7095 C0,2.07765 2.65715,0 5.42735,0 Z M5.8026,2.3028 C3.93015,2.3028 2.489,3.781 2.489,5.6715 C2.489,7.581 3.93015,9.0782 5.8026,9.0782 C7.67315,9.0782 9.07725,7.562 9.07725,5.6715 C9.07725,3.81805 7.67315,2.3028 5.8026,2.3028 Z"></path></clipPath><clipPath id="i5"><path d="M3.23855,0 L5.72755,3.48175 L8.1985,0 L11.1929,0 L7.26275,5.4093 L11.4551,10.9497 L8.36665,10.9497 L5.6905,7.2998 L3.08845,10.9497 L0,10.9497 L4.11825,5.37225 L0.1501,0 L3.23855,0 Z"></path></clipPath><clipPath id="i6"><path d="M2.69515,0 L5.74655,7.37485 L8.62885,0 L11.28695,0 L4.75475,16.0037 L2.1907,16.0037 L4.49255,10.40725 L0,0 L2.69515,0 Z"></path></clipPath><clipPath id="i7"><path d="M4.6797,0 C7.50595,0 9.6026,2.17075 9.6026,4.8659 C9.6026,7.58005 7.50595,9.7508 4.6607,9.7508 L2.546,9.7508 L2.546,13.6629 L0,13.6629 L0,0 L4.6797,0 Z M4.49255,2.3579 L2.546,2.3579 L2.546,7.3929 L4.49255,7.3929 C6.00875,7.3929 7.03855,6.27 7.03855,4.8659 C7.03855,3.4808 6.00875,2.3579 4.49255,2.3579 Z"></path></clipPath><clipPath id="i8"><path d="M5.4283,0 C6.86945,0 8.1605,0.59945 8.9471,1.5352 L8.9471,0.22515 L11.4741,0.22515 L11.4741,11.1739 L8.9471,11.1739 L8.9471,9.75175 C8.14245,10.76255 6.8324,11.39905 5.3903,11.39905 C2.75215,11.39905 0,9.28435 0,5.7095 C0,2.07765 2.6581,0 5.4283,0 Z M5.80355,2.3028 C3.9311,2.3028 2.48995,3.781 2.48995,5.6715 C2.48995,7.581 3.9311,9.0782 5.80355,9.0782 C7.6741,9.0782 9.0782,7.562 9.0782,5.6715 C9.0782,3.819 7.6741,2.3028 5.80355,2.3028 Z"></path></clipPath><clipPath id="i9"><path d="M4.7538,0.000150406168 C6.92455,0.000150406168 8.3847,0.880800406 9.22735,2.26495041 L7.07465,3.35080041 C6.62625,2.58320041 5.80165,2.09680041 4.7538,2.09680041 C3.55585,2.09680041 2.9944,2.65825041 2.9944,3.27670041 C2.9944,4.00630041 3.8741,4.19345041 5.5024,4.54875041 C7.2998,4.92305041 9.35845,5.54055041 9.35845,7.84335041 C9.35845,9.37760041 7.99235,11.4362504 4.8659,11.4182004 C2.47095,11.4182004 0.8797,10.4815004 0,8.76010041 L2.33985,7.63720041 C2.86425,8.64800041 3.79905,9.22750041 4.978,9.22750041 C6.21395,9.22750041 6.85045,8.61000041 6.85045,7.89940041 C6.85045,7.11280041 5.6335,6.92565041 4.2864,6.64540041 C2.39495,6.27110041 0.44935,5.63365041 0.44935,3.35080041 C0.44935,1.59140041 2.1337,-0.0178995938 4.7538,0.000150406168 Z"></path></clipPath><clipPath id="i10"><path d="M4.75475,0.000150406168 C6.9255,0.000150406168 8.3847,0.880800406 9.2283,2.26495041 L7.07465,3.35080041 C6.62625,2.58320041 5.8026,2.09680041 4.75475,2.09680041 C3.55585,2.09680041 2.9944,2.65825041 2.9944,3.27670041 C2.9944,4.00630041 3.8741,4.19345041 5.50335,4.54875041 C7.2998,4.92305041 9.3594,5.54055041 9.3594,7.84335041 C9.3594,9.37760041 7.99235,11.4362504 4.86685,11.4182004 C2.47095,11.4182004 0.8797,10.4815004 0,8.76010041 L2.33985,7.63720041 C2.86425,8.64800041 3.8,9.22750041 4.97895,9.22750041 C6.21395,9.22750041 6.85045,8.61000041 6.85045,7.89940041 C6.85045,7.11280041 5.63445,6.92565041 4.2864,6.64540041 C2.39495,6.27110041 0.44935,5.63365041 0.44935,3.35080041 C0.44935,1.59140041 2.1337,-0.0178995938 4.75475,0.000150406168 Z"></path></clipPath></defs><g transform="translate(23.0 6.0)"><g transform="translate(0.0 9.500000004436515e-05)"><g clip-path="url(#i0)"><polygon points="0,0 13.77595,0 13.77595,14.03815 0,14.03815 0,0" stroke="none" fill="#000000"></polygon></g></g><g transform="translate(14.938084999999772 2.676150000000008)"><g clip-path="url(#i1)"><polygon points="0,0 11.4741,0 11.4741,11.39905 0,11.39905 0,0" stroke="none" fill="#000000"></polygon></g></g><g clip-path="url(#i2)"><g transform="translate(28.04305000000022 0.0)"><g clip-path="url(#i3)"><polygon points="0,0 2.54505,0 2.54505,13.851 0,13.851 0,0" stroke="none" fill="#000000"></polygon></g></g><g transform="translate(31.880385000000388 2.676150000000008)"><g clip-path="url(#i4)"><polygon points="0,0 11.47315,0 11.47315,11.39905 0,11.39905 0,0" stroke="none" fill="#000000"></polygon></g></g><g transform="translate(44.16065499999968 2.90073000000001)"><g clip-path="url(#i5)"><polygon points="0,0 11.4551,0 11.4551,10.9497 0,10.9497 0,0" stroke="none" fill="#000000"></polygon></g></g><g transform="translate(55.86028500000066 2.900540000000035)"><g clip-path="url(#i6)"><polygon points="0,0 11.28695,0 11.28695,16.00351 0,16.00351 0,0" stroke="none" fill="#000000"></polygon></g></g><g transform="translate(72.6561899999997 0.16178500000000895)"><g clip-path="url(#i7)"><polygon points="0,0 9.6026,0 9.6026,13.6629 0,13.6629 0,0" stroke="none" fill="#000000"></polygon></g></g><g transform="translate(82.93357499999911 2.6502150000000038)"><g clip-path="url(#i8)"><polygon points="0,0 11.4741,0 11.4741,11.39905 0,11.39905 0,0" stroke="none" fill="#000000"></polygon></g></g><g transform="translate(95.28946499999984 2.6314445938316444)"><g clip-path="url(#i9)"><polygon points="0,1.33226763e-15 9.35845,1.33226763e-15 9.35845,11.4183183 0,11.4183183 0,1.33226763e-15" stroke="none" fill="#000000"></polygon></g></g><g transform="translate(105.3600349999997 2.6314445938316444)"><g clip-path="url(#i10)"><polygon points="0,1.33226763e-15 9.358165,1.33226763e-15 9.358165,11.4183183 0,11.4183183 0,1.33226763e-15" stroke="none" fill="#000000"></polygon></g></g></g></g></svg>