<?xml version="1.0" encoding="UTF-8"?>
<svg width="160px" height="30px" viewBox="0 0 160 30" version="1.1" xmlns="http://www.w3.org/2000/svg" xmlns:xlink="http://www.w3.org/1999/xlink">
    <!-- Generator: Sketch 63.1 (92452) - https://sketch.com -->
    <title>Samsung_Pass/Light_theme/img/MKTlogo</title>
    <desc>Created with Sketch.</desc>
    <g id="Samsung_Pass/Light_theme/img/MKTlogo" stroke="none" stroke-width="1" fill="none" fill-rule="evenodd">
        <path d="M125.916158,10.555003 C127.397401,10.555003 128.725083,11.1602074 129.533359,12.106449 L129.533359,10.782101 L132.131188,10.782101 L132.131188,21.8513713 L129.533359,21.8513713 L129.533359,20.4130841 C128.706037,21.435025 127.359308,22.0784693 125.877272,22.0784693 C123.164371,22.0784693 120.335606,19.9401584 120.335606,16.3264912 C120.335606,12.655074 123.068347,10.555003 125.916158,10.555003 Z M137.924502,10.5363123 C140.156485,10.5363123 141.657568,11.4255843 142.523378,12.8256316 L140.310442,13.9228816 C139.848967,13.1471586 139.002203,12.655113 137.924502,12.655113 C136.693241,12.655113 136.115902,13.2228579 136.115902,13.8475725 C136.115902,14.5854458 137.020202,14.7746941 138.694288,15.1340708 C140.541378,15.5125674 142.657893,16.1368917 142.657893,18.4644508 C142.657893,20.016287 141.253628,22.0976282 138.03997,22.0785083 C135.577052,22.0785083 133.941455,21.1322667 133.037551,19.3915725 L135.442934,18.2564728 C135.981388,19.2780235 136.94362,19.8644981 138.155438,19.8644981 C139.425585,19.8644981 140.079903,19.2401738 140.079903,18.5214204 C140.079903,17.7261873 138.829199,17.5373292 137.443584,17.2536519 C135.50047,16.8751552 133.499026,16.2313208 133.499026,13.9228816 C133.499026,12.1447279 135.230648,10.5171924 137.924502,10.5363123 Z M148.277648,10.5363123 C150.50963,10.5363123 152.010713,11.4255843 152.876524,12.8256316 L150.663588,13.9228816 C150.202113,13.1471586 149.355348,12.655113 148.277648,12.655113 C147.046387,12.655113 146.469048,13.2228579 146.469048,13.8475725 C146.469048,14.5854458 147.373348,14.7746941 149.047434,15.1340708 C150.894523,15.5125674 153.011038,16.1368917 153.011038,18.4644508 C153.011038,20.016287 151.606774,22.0976282 148.393116,22.0785083 C145.930197,22.0785083 144.2946,21.1322667 143.3903,19.3915725 L145.795683,18.2564728 C146.334533,19.2780235 147.296766,19.8644981 148.508584,19.8644981 C149.778731,19.8644981 150.433049,19.2401738 150.433049,18.5214204 C150.433049,17.7261873 149.182345,17.5373292 147.79673,17.2536519 C145.853219,16.8751552 143.852172,16.2313208 143.852172,13.9228816 C143.852172,12.1447279 145.583794,10.5171924 148.277648,10.5363123 Z M114.580543,8.03850777 C117.486287,8.03850777 119.641291,10.233398 119.641291,12.9581834 C119.641291,15.7016986 117.486287,17.8965889 114.561497,17.8965889 L112.387447,17.8965889 L112.387447,21.8512932 L109.770174,21.8512932 L109.770174,8.03850777 L114.580543,8.03850777 Z M10.7422138,7.38415456 C12.5987448,7.38415456 15.1743044,7.83171706 15.1743044,10.6388353 L15.1743044,10.6388353 L15.1743044,11.5456664 L11.8987738,11.5456664 L11.8987738,10.7469215 C11.8987738,10.0437762 11.4465521,9.57475253 10.6786884,9.57475253 C9.85047544,9.57475253 9.56659613,10.0336309 9.47686645,10.4445144 C9.44113339,10.5873285 9.42644313,10.8624215 9.4903656,11.1222965 C9.8639746,12.6331613 14.8439721,13.4350279 15.3982315,16.143815 C15.4514341,16.4185177 15.5697502,17.142734 15.4121277,18.2559823 C15.0941035,20.4157542 13.1458576,21.2102069 10.7731825,21.2102069 C8.30561614,21.2102069 6.0000397,20.3423961 6.0000397,17.4572373 L6.0000397,17.4572373 L6.0000397,16.4708049 L9.52331942,16.4708049 L9.52808383,17.7120397 C9.52808383,18.4179164 10.0188179,18.8873302 10.8390901,18.8873302 C11.7173293,18.8873302 12.0135167,18.4495228 12.1215099,18.0156174 C12.1846383,17.7717407 12.2227536,17.3729535 12.0957027,17.0627424 C11.4171716,15.3934552 6.75003693,14.630609 6.18148424,11.9920583 C6.04371344,11.3400296 6.05999184,10.8312052 6.15528,10.2525346 C6.50427288,8.14544003 8.40963905,7.38415456 10.7422138,7.38415456 Z M53.4400443,7.45751267 C55.2767236,7.45751267 57.8133738,7.89414949 57.8133738,10.674734 L57.8133738,10.674734 L57.8133738,11.5741512 L54.5759586,11.5741512 L54.5759586,10.7851613 C54.5759586,10.0874789 54.1316775,9.62313767 53.3729455,9.62313767 C52.5594229,9.62313767 52.2767347,10.0734316 52.1830346,10.4870465 C52.1528601,10.6282998 52.1357876,10.8991005 52.1945486,11.1542931 C52.5669665,12.6475988 57.4921733,13.4521968 58.0353158,16.1282069 C58.0944739,16.3986174 58.2064375,17.1173708 58.0583438,18.2200836 C57.7474662,20.3552728 55.8107343,21.1427019 53.4654545,21.1427019 C51.0165487,21.1427019 48.7431321,20.2819147 48.7431321,17.4295329 L48.7431321,17.4295329 L48.7431321,16.4450515 L52.2278995,16.4450515 L52.2286935,17.6835549 C52.2286935,18.3792863 52.7202216,18.8408961 53.5377146,18.8408961 C54.4088072,18.8408961 54.7026124,18.4089417 54.803062,17.9797188 C54.8634112,17.7448167 54.8975561,17.3464198 54.7788429,17.0338674 C54.1082525,15.3840904 49.4871738,14.6274873 48.9245766,12.0185921 C48.7796592,11.373587 48.8022901,10.8682745 48.8936079,10.2989688 C49.2386305,8.20670186 51.1273212,7.45751267 53.4400443,7.45751267 Z M64.507367,7.79542821 L64.507367,17.3425177 C64.5033967,17.5087441 64.507367,17.6956512 64.5407179,17.8326123 C64.6046404,18.1529688 64.8885197,18.7698792 65.7929631,18.7698792 C66.7089206,18.7698792 66.9856533,18.1529688 67.0543402,17.8326123 C67.0837207,17.6956512 67.0888821,17.5087441 67.0837207,17.3425177 L67.0837207,17.3425177 L67.0837207,7.79542821 L70.4045131,7.79542821 L70.4045131,17.0459637 C70.4188063,17.2847677 70.3949842,17.7717407 70.3767207,17.899337 C70.1432647,20.3096191 68.2112972,21.0923657 65.7929631,21.0923657 C63.3789964,21.0923657 61.4458379,20.3096191 61.2167493,17.899337 C61.202456,17.7717407 61.1833984,17.2847677 61.1873687,17.0459637 L61.1873687,17.0459637 L61.1873687,7.79542821 L64.507367,7.79542821 Z M93.1946617,7.44853801 C95.522075,7.44853801 97.5513158,8.21411571 97.7998591,10.6349333 C97.8399595,11.0469873 97.8252693,11.489087 97.8252693,11.489087 L97.8252693,11.9124569 L94.517976,11.9124569 L94.5170765,11.1447575 C94.5147501,11.0482555 94.5065613,10.8378387 94.4782726,10.6985363 C94.4207027,10.4175904 94.1697772,9.76400084 93.1652812,9.76400084 C92.2088263,9.76400084 91.925344,10.3840329 91.8602304,10.6985363 C91.8149686,10.8713961 91.8006753,11.0996647 91.8006753,11.3080329 L91.8006753,11.3080329 L91.8006753,17.206337 C91.8006753,17.3729535 91.8109982,17.552837 91.8348203,17.697212 C91.8923902,18.0452728 92.2231195,18.6383809 93.1728248,18.6383809 C94.1280887,18.6383809 94.4647735,18.0452728 94.517976,17.697212 C94.5473566,17.552837 94.5564883,17.3729535 94.552518,17.206337 L94.552518,17.206337 L94.552518,15.3388269 L93.2065727,15.3388269 L93.2065727,13.4568792 L97.8510765,13.4568792 L97.8510765,16.9144654 C97.8463121,17.1509282 97.8423417,17.3339333 97.8030354,17.7658877 C97.5834756,20.1199806 95.522075,20.9546242 93.1855299,20.9546242 C90.8632781,20.9546242 88.7875843,20.1199806 88.5715978,17.7658877 C88.526733,17.3339333 88.5191893,17.1509282 88.5191893,16.9144654 L88.5191893,11.489087 C88.5191893,11.2530144 88.5592898,10.855788 88.585494,10.6349333 C88.8749318,8.22113936 90.8632781,7.44853801 93.1946617,7.44853801 Z M25.8946194,7.79542821 L28.3165268,20.700212 L24.7944382,20.700212 L23.0058,8.75376605 L21.172694,20.700212 L17.6255923,20.700212 L20.0578226,7.79542821 L25.8946194,7.79542821 Z M36.5795984,7.79542821 L38.2348332,17.8833387 L39.8916561,7.79542821 L45.2420862,7.79542821 L45.5362884,20.700212 L42.2460677,20.700212 L42.156735,8.75376605 L39.8968175,20.700212 L36.5668933,20.700212 L34.308961,8.75376605 L34.2204224,20.700212 L30.9385393,20.700212 L31.2224187,7.79542821 L36.5795984,7.79542821 Z M78.9185102,7.79542821 L82.010611,18.1853556 L81.8319457,7.79542821 L85.0761105,7.79542821 L85.0761105,20.5659823 L80.4026233,20.5659823 L77.0818309,9.84321199 L77.2688339,20.5659823 L74.0457119,20.5659823 L74.0457119,7.79542821 L78.9185102,7.79542821 Z M126.301051,12.882172 C124.376586,12.882172 122.895343,14.3774287 122.895343,16.2882514 C122.895343,18.2181939 124.376586,19.7321804 126.301051,19.7321804 C128.224722,19.7321804 129.66827,18.1994642 129.66827,16.2882514 C129.66827,14.4148882 128.224722,12.882172 126.301051,12.882172 Z M114.388494,10.4226463 L112.387447,10.4226463 L112.387447,15.5124503 L114.388494,15.5124503 C115.947112,15.5124503 117.005369,14.3773507 117.005369,12.9581834 C117.005369,11.5577459 115.947112,10.4226463 114.388494,10.4226463 Z" id="Combined-Shape" fill="#000000"></path>
    </g>
</svg>