<?xml version="1.0" encoding="UTF-8"?>
<svg width="72px" height="72px" viewBox="0 0 72 72" version="1.1" xmlns="http://www.w3.org/2000/svg" xmlns:xlink="http://www.w3.org/1999/xlink">
    <title>Preload01/phone</title>
    <defs>
        <linearGradient x1="50%" y1="100%" x2="50%" y2="0.376771438%" id="linearGradient-1">
            <stop stop-color="#2929B3" offset="0%"></stop>
            <stop stop-color="#1B41CC" offset="100%"></stop>
        </linearGradient>
        <path d="M63.56575,8 C56.96225,1.35 47.06425,0 35.99975,0 C24.93475,0 15.03675,1.35 8.43325,8 C3.17025,13.3 -0.00025,21.967 -0.00025,36 C-0.00025,50.033 3.17075,58.7 8.43425,64.0005 C15.03775,70.6495 24.93525,72 35.99975,72 C47.06325,72 56.96125,70.6495 63.56475,64.0005 C68.82875,58.7 71.99975,50.033 71.99975,36 C71.99975,21.967 68.82925,13.3005 63.56575,8 Z" id="path-2"></path>
        <path d="M34.9,40.4976415 C33.7278957,40.2090913 32.6330904,39.5675219 31.7996291,38.5796922 C29.7136095,36.1059588 30.0522525,32.4281129 32.5542139,30.3656286 L34.9,33.147149 L34.9,25.8205723 L27.6102371,24.5 L30.037003,27.3787436 C25.8660155,30.8163909 25.3033634,36.9450941 28.7791863,41.0695429 C30.3914213,42.9812533 32.5904971,44.1141379 34.9,44.45 L34.9,40.4976415 Z" id="path-4"></path>
    </defs>
    <g id="App-Icons" stroke="none" stroke-width="1" fill="none" fill-rule="evenodd">
        <g id="Preload_02" transform="translate(-269.000000, -412.000000)">
            <g id="Preload01/phone" transform="translate(269.000000, 412.000000)">
                <g id="Container">
                    <mask id="mask-3" fill="white">
                        <use xlink:href="#path-2"></use>
                    </mask>
                    <use id="container" fill="url(#linearGradient-1)" xlink:href="#path-2"></use>
                </g>
                <path d="M52.6730695,32.6732455 C52.3573994,23.9633467 45.262465,17 36.5522908,17 C28.5830716,17 21.9677027,22.829284 20.657593,30.4917832 C15.5552269,30.7682542 11.5,35.0163369 11.5,40.2325997 C11.5,45.6269736 15.8345343,50 21.1819531,50 C21.7595397,50 51.343988,49.998405 51.8941708,49.998405 C56.6471392,49.998405 60.5,46.1113295 60.5,41.3161533 C60.5,36.7857511 57.0603033,33.0709383 52.6730695,32.6732455" id="Fill-4" fill="#FFFFFF"></path>
                <path d="M38.3666905,25.7449815 L38.3666905,29.6144943 C39.6530912,29.8816749 40.8549613,30.5844317 41.7248571,31.7028028 C43.6731572,34.2051901 43.2213032,37.8131525 40.7151017,39.7591693 L38.3666905,36.7398233 L38.3666905,44.1727684 L45.3330289,45.6949815 L43.0670991,42.7810746 C47.2429061,39.5375425 47.9965084,33.5254661 44.7505369,29.3534557 C43.1244773,27.2636117 40.8027061,26.0464554 38.3666905,25.7449815 Z" id="Fill-6" fill="#2149C9"></path>
                <g id="Fill-8">
                    <use fill="#2149C9" xlink:href="#path-4"></use>
                    <use fill-opacity="0.5" fill="#FFFFFF" xlink:href="#path-4"></use>
                </g>
            </g>
        </g>
    </g>
</svg>